<svg id="visual" viewBox="0 0 900 675" width="900" height="675" xmlns="http://www.w3.org/2000/svg" xmlns:xlink="http://www.w3.org/1999/xlink" version="1.1"><rect x="0" y="0" width="900" height="675" fill="#CFD11A"></rect><defs><linearGradient id="grad1_0" x1="25%" y1="0%" x2="100%" y2="100%"><stop offset="23.333333333333336%" stop-color="#00a380" stop-opacity="1"></stop><stop offset="76.66666666666666%" stop-color="#00a380" stop-opacity="1"></stop></linearGradient></defs><defs><linearGradient id="grad1_1" x1="25%" y1="0%" x2="100%" y2="100%"><stop offset="23.333333333333336%" stop-color="#00a380" stop-opacity="1"></stop><stop offset="76.66666666666666%" stop-color="#cfd11a" stop-opacity="1"></stop></linearGradient></defs><defs><linearGradient id="grad2_0" x1="0%" y1="0%" x2="75%" y2="100%"><stop offset="23.333333333333336%" stop-color="#00a380" stop-opacity="1"></stop><stop offset="76.66666666666666%" stop-color="#00a380" stop-opacity="1"></stop></linearGradient></defs><defs><linearGradient id="grad2_1" x1="0%" y1="0%" x2="75%" y2="100%"><stop offset="23.333333333333336%" stop-color="#cfd11a" stop-opacity="1"></stop><stop offset="76.66666666666666%" stop-color="#00a380" stop-opacity="1"></stop></linearGradient></defs><g transform="translate(900, 0)"><path d="M0 421C-47 423.9 -93.9 426.7 -133.2 409.9C-172.5 393.1 -204 356.6 -236.9 326C-269.7 295.5 -303.8 270.8 -328.5 238.6C-353.1 206.5 -368.4 166.8 -387.1 125.8C-405.8 84.7 -427.9 42.4 -450 0L0 0Z" fill="#6ac05a"></path><path d="M0 210.5C-23.5 211.9 -47 213.4 -66.6 205C-86.2 196.5 -102 178.3 -118.4 163C-134.9 147.7 -151.9 135.4 -164.2 119.3C-176.6 103.2 -184.2 83.4 -193.5 62.9C-202.9 42.4 -213.9 21.2 -225 0L0 0Z" fill="#00a380"></path></g><g transform="translate(0, 675)"><path d="M0 -396C40.7 -397 81.5 -398 128.9 -396.6C176.3 -395.2 230.3 -391.3 264.5 -364.1C298.7 -336.8 313.1 -286 337.4 -245.1C361.7 -204.2 395.9 -173 411.8 -133.8C427.7 -94.6 425.4 -47.3 423 0L0 0Z" fill="#6ac05a"></path><path d="M0 -198C20.4 -198.5 40.7 -199 64.4 -198.3C88.1 -197.6 115.1 -195.7 132.3 -182C149.4 -168.4 156.5 -143 168.7 -122.6C180.8 -102.1 197.9 -86.5 205.9 -66.9C213.9 -47.3 212.7 -23.6 211.5 0L0 0Z" fill="#00a380"></path></g></svg>